<svg xmlns="http://www.w3.org/2000/svg" xmlns:xlink="http://www.w3.org/1999/xlink" width="132.343" height="22.905" viewBox="0 0 132.343 22.905">
  <defs>
    <clipPath id="clip-path">
      <path id="Path_2" data-name="Path 2" d="M0-17.594H132.343V-40.5H0Z" transform="translate(0 40.499)" fill="none"/>
    </clipPath>
  </defs>
  <g id="Group_3" data-name="Group 3" transform="translate(0 40.499)">
    <g id="Group_2" data-name="Group 2" transform="translate(0 -40.499)" clip-path="url(#clip-path)">
      <g id="Group_1" data-name="Group 1" transform="translate(0 0)">
        <path id="Path_1" data-name="Path 1" d="M-11.25-5v1.373a6.091,6.091,0,0,1-6.091,6.091h-5.195a.283.283,0,0,0-.283.283V10.7a.283.283,0,0,1-.283.283h-2.51A.283.283,0,0,1-25.9,10.7V-10.807a.283.283,0,0,1,.283-.283h8.271A6.091,6.091,0,0,1-11.25-5M-18.6-8.014h-3.958a.265.265,0,0,0-.265.265v3.958a.265.265,0,0,0,.453.187l3.958-3.957a.265.265,0,0,0-.188-.453M-14.326-5A2.983,2.983,0,0,0-14.7-6.448a.264.264,0,0,0-.417-.054l-5.438,5.438a.265.265,0,0,0,.187.453h3.027a3.015,3.015,0,0,0,3.015-3.015ZM42.089,6.062c0-1.165.005-3.588-4.466-7.416-3.393-2.9-3.391-4.37-3.39-5.074a1.951,1.951,0,0,1,1.946-2h.889a1.947,1.947,0,0,1,1.946,1.947v1.539a.265.265,0,0,0,.265.265h2.546a.265.265,0,0,0,.265-.265V-6.483a5.023,5.023,0,0,0-5.022-5.023h-.889a5.029,5.029,0,0,0-5.022,5.074c-.283,5.692,7.92,8.318,7.856,12.49a2.2,2.2,0,0,1-2.2,2.255H36.43a2.2,2.2,0,0,1-2.2-2.2V4.238a.265.265,0,0,0-.265-.265H31.42a.265.265,0,0,0-.265.265V6.114a5.469,5.469,0,0,0,10.934-.051M82.93-10.955H93.153a.265.265,0,0,1,.229.4L80.958,10.716a.266.266,0,0,1-.461,0L68.638-10.56a.265.265,0,0,1,.232-.394H79.42a.265.265,0,0,1,.228.4L78.161-8.01a.265.265,0,0,1-.229.131H74.107a.265.265,0,0,0-.232.394c.922,1.652,2.21,3.964,3.132,5.618a.265.265,0,0,0,.46.005c1.3-2.23,4.1-7.018,5.235-8.962a.266.266,0,0,1,.229-.131M79.045,1.792l1.513,2.714a.265.265,0,0,0,.46.005l7-11.99a.266.266,0,0,0-.229-.4H84.7a.265.265,0,0,0-.229.132L79.047,1.529a.266.266,0,0,0,0,.263M65.857-11.09H54.893a.265.265,0,0,0-.265.265V10.718a.266.266,0,0,0,.265.265H65.857a.266.266,0,0,0,.265-.265V8.172a.265.265,0,0,0-.265-.265H57.969a.265.265,0,0,1-.265-.265V-7.748a.265.265,0,0,1,.265-.265h7.887a.265.265,0,0,0,.265-.265v-2.546a.265.265,0,0,0-.265-.265m.265,9.372V-5.237a.265.265,0,0,0-.448-.192L59.431.528a.265.265,0,0,0-.082.192V4.239a.265.265,0,0,0,.448.192l6.242-5.957a.267.267,0,0,0,.083-.192m40.061-9.372H95.219a.265.265,0,0,0-.265.265V10.718a.266.266,0,0,0,.265.265h10.964a.266.266,0,0,0,.265-.265V8.172a.265.265,0,0,0-.265-.265H98.3a.265.265,0,0,1-.265-.265V-7.748a.265.265,0,0,1,.265-.265h7.887a.265.265,0,0,0,.265-.265v-2.546a.265.265,0,0,0-.265-.265m.265,9.372V-5.237A.265.265,0,0,0,106-5.428L99.758.528a.266.266,0,0,0-.083.192V4.239a.265.265,0,0,0,.448.192l6.242-5.957a.266.266,0,0,0,.082-.192M-3.294-11.09H-6.1a.265.265,0,0,0-.265.265V10.718a.266.266,0,0,0,.265.265H4.859a.266.266,0,0,0,.265-.265V8.172a.265.265,0,0,0-.265-.265H-3.028a.265.265,0,0,1-.265-.265V-7.748a.265.265,0,0,1,.265-.265H4.859a.265.265,0,0,0,.265-.265v-2.546a.265.265,0,0,0-.265-.265ZM-1.2,4.431,5.042-1.526a.264.264,0,0,0,.082-.192V-5.237a.265.265,0,0,0-.448-.192L-1.566.528A.268.268,0,0,0-1.648.72V4.239a.265.265,0,0,0,.448.192M22.767-11.09h2.546a.265.265,0,0,1,.265.265V10.718a.265.265,0,0,1-.265.265h-2.7a.265.265,0,0,1-.187-.078L14.461,2.943a.265.265,0,0,0-.452.187v7.588a.265.265,0,0,1-.265.265H11.2a.265.265,0,0,1-.265-.265V-10.824a.265.265,0,0,1,.265-.265h2.7a.265.265,0,0,1,.188.077L22.049-3.05a.265.265,0,0,0,.452-.187v-7.588a.265.265,0,0,1,.265-.265m-8.68,9.306,7.963,7.963a.265.265,0,0,0,.452-.188V1.865a.264.264,0,0,0-.077-.187L14.461-6.285a.265.265,0,0,0-.452.188v4.126a.265.265,0,0,0,.077.187M49.61-11.09H47.065a.265.265,0,0,0-.265.265v5.254a.265.265,0,0,0,.448.192l2.546-2.43A.267.267,0,0,0,49.875-8v-2.824a.265.265,0,0,0-.265-.265M46.8-1.665V10.717a.265.265,0,0,0,.265.265H49.61a.265.265,0,0,0,.265-.265V-4.094a.265.265,0,0,0-.449-.192l-2.546,2.43a.265.265,0,0,0-.082.192" transform="translate(25.895 11.506)" fill="#fff"/>
      </g>
    </g>
  </g>
</svg>
